<?xml version="1.0" standalone="no"?><!-- Generator: Gravit.io --><svg xmlns="http://www.w3.org/2000/svg" xmlns:xlink="http://www.w3.org/1999/xlink" style="isolation:isolate" viewBox="0 0 800 480" width="800px" height="480px"><g id="Símbolo 1"><path d=" M 216.25 240 C 216.25 138.586 298.586 56.25 400 56.25 C 501.414 56.25 583.75 138.586 583.75 240 C 583.75 341.414 501.414 423.75 400 423.75 C 298.586 423.75 216.25 341.414 216.25 240 Z " id="circle" fill="rgb(255,197,90)"/><path d=" M 696.817 322.775 L 696.817 322.775 L 697.211 359.697 L 697.211 367.24 L 697.211 367.24 Q 697.211 398.603 678.733 418.453 L 678.733 418.453 L 678.733 418.453 Q 660.256 438.304 632.736 438.304 L 632.736 438.304 L 632.736 438.304 Q 610.721 438.304 606.789 426.393 L 606.789 426.393 L 606.789 426.393 Q 604.824 420.041 604.824 409.719 L 604.824 409.719 L 604.824 409.719 Q 604.824 399.397 606.789 393.442 L 606.789 393.442 L 606.789 393.442 Q 608.755 387.487 613.473 385.105 L 613.473 385.105 L 613.473 385.105 Q 620.549 381.532 627.429 381.532 L 627.429 381.532 L 627.429 381.532 Q 634.309 381.532 635.488 381.333 L 635.488 381.333 L 635.488 381.333 Q 636.668 381.135 638.83 378.554 L 638.83 378.554 L 638.83 378.554 Q 640.992 375.974 640.992 371.21 L 640.992 371.21 L 640.992 361.682 L 640.599 303.719 L 640.599 303.719 Q 640.599 281.884 646.496 266.202 L 646.496 266.202 L 646.496 266.202 Q 652.393 250.521 658.29 245.36 L 658.29 245.36 L 664.187 240.596 L 664.187 240.596 Q 661.435 238.213 657.504 233.846 L 657.504 233.846 L 657.504 233.846 Q 653.573 229.479 647.086 214.393 L 647.086 214.393 L 647.086 214.393 Q 640.599 199.307 640.599 181.839 L 640.599 181.839 L 640.992 114.348 L 640.992 114.348 Q 640.992 101.247 636.668 99.262 L 636.668 99.262 L 636.668 99.262 Q 635.095 98.865 630.181 98.865 L 630.181 98.865 L 630.181 98.865 Q 625.267 98.865 621.532 98.071 L 621.532 98.071 L 621.532 98.071 Q 617.797 97.277 613.276 94.696 L 613.276 94.696 L 613.276 94.696 Q 608.755 92.116 606.789 85.962 L 606.789 85.962 L 606.789 85.962 Q 604.824 79.809 604.824 69.884 L 604.824 69.884 L 604.824 69.884 Q 604.824 59.959 606.789 53.805 L 606.789 53.805 L 606.789 53.805 Q 608.755 47.651 613.08 45.269 L 613.08 45.269 L 613.08 45.269 Q 620.156 41.696 633.129 41.696 L 633.129 41.696 L 633.129 41.696 Q 660.649 41.696 678.93 61.15 L 678.93 61.15 L 678.93 61.15 Q 697.211 80.603 697.211 111.172 L 697.211 111.172 L 697.604 192.161 L 697.604 192.161 Q 697.604 211.614 722.371 211.614 L 722.371 211.614 L 723.944 211.614 L 723.944 211.614 Q 737.704 211.614 741.242 223.921 L 741.242 223.921 L 741.242 223.921 Q 742.814 230.273 742.814 241.588 L 742.814 241.588 L 742.814 241.588 Q 742.814 252.903 739.276 259.85 L 739.276 259.85 L 739.276 259.85 Q 735.738 266.798 732.2 267.79 L 732.2 267.79 L 732.2 267.79 Q 728.661 268.783 723.551 268.783 L 723.551 268.783 L 721.192 268.783 L 721.192 268.783 Q 697.604 268.783 697.604 287.839 L 697.604 287.839 L 697.604 287.839 Q 696.817 297.367 696.817 322.775 Z  M 102.396 367.24 L 102.396 359.697 L 102.789 322.775 L 102.789 322.775 Q 102.789 297.367 102.003 287.839 L 102.003 287.839 L 102.003 287.839 Q 102.003 268.783 78.415 268.783 L 78.415 268.783 L 76.056 268.783 L 76.056 268.783 Q 62.69 268.783 59.151 256.476 L 59.151 256.476 L 59.151 256.476 Q 57.186 250.124 57.186 240.199 L 57.186 240.199 L 57.186 240.199 Q 57.186 230.273 58.955 223.921 L 58.955 223.921 L 58.955 223.921 Q 60.724 217.569 63.869 215.187 L 63.869 215.187 L 63.869 215.187 Q 68.98 211.614 75.663 211.614 L 75.663 211.614 L 77.236 211.614 L 77.236 211.614 Q 102.003 211.614 102.003 192.161 L 102.003 192.161 L 102.003 192.161 Q 102.396 119.509 102.396 111.172 L 102.396 111.172 L 102.396 111.172 Q 102.396 80.603 120.677 61.15 L 120.677 61.15 L 120.677 61.15 Q 138.958 41.696 166.477 41.696 L 166.477 41.696 L 166.477 41.696 Q 179.451 41.696 185.348 44.674 L 185.348 44.674 L 185.348 44.674 Q 191.245 47.651 193.211 53.805 L 193.211 53.805 L 193.211 53.805 Q 195.176 59.959 195.176 69.884 L 195.176 69.884 L 195.176 69.884 Q 195.176 79.809 193.211 85.962 L 193.211 85.962 L 193.211 85.962 Q 191.245 92.116 186.527 94.498 L 186.527 94.498 L 186.527 94.498 Q 179.058 98.865 166.871 98.865 L 166.871 98.865 L 166.871 98.865 Q 159.008 98.865 159.008 114.348 L 159.008 114.348 L 159.008 181.839 L 159.008 181.839 Q 159.008 199.307 153.111 213.996 L 153.111 213.996 L 153.111 213.996 Q 147.214 228.685 141.71 234.64 L 141.71 234.64 L 135.813 240.596 L 135.813 240.596 Q 138.172 241.787 143.086 247.742 L 143.086 247.742 L 143.086 247.742 Q 148 253.697 151.145 260.446 L 151.145 260.446 L 151.145 260.446 Q 159.008 278.311 158.811 310.468 L 158.811 310.468 L 158.811 310.468 Q 158.615 342.626 158.615 361.682 L 158.615 361.682 L 158.615 371.21 L 158.615 371.21 Q 158.615 375.974 160.58 378.753 L 160.58 378.753 L 160.58 378.753 Q 163.332 381.532 168.64 381.532 L 168.64 381.532 L 168.64 381.532 Q 173.947 381.532 177.682 382.127 L 177.682 382.127 L 177.682 382.127 Q 181.417 382.723 186.527 385.105 L 186.527 385.105 L 186.527 385.105 Q 195.176 389.472 195.176 409.719 L 195.176 409.719 L 195.176 409.719 Q 195.176 430.363 186.134 434.731 L 186.134 434.731 L 186.134 434.731 Q 179.058 438.304 166.871 438.304 L 166.871 438.304 L 166.871 438.304 Q 139.351 438.304 120.874 418.453 L 120.874 418.453 L 120.874 418.453 Q 102.396 398.603 102.396 367.24 L 102.396 367.24 Z " id="{  }" fill="rgb(255,197,90)"/><path d=" M 491.018 210.615 L 491.018 210.615 L 491.018 210.615 Q 491.018 219.31 488.099 229.373 L 488.099 229.373 L 488.099 229.373 Q 485.18 239.436 478.652 248.051 L 478.652 248.051 L 478.652 248.051 Q 472.123 256.665 461.6 262.461 L 461.6 262.461 L 461.6 262.461 Q 451.078 268.258 436.023 268.258 L 436.023 268.258 L 363.977 268.258 L 363.977 228.488 L 436.023 228.488 L 436.023 228.488 Q 444.165 228.488 448.62 223.255 L 448.62 223.255 L 448.62 223.255 Q 453.075 218.022 453.075 210.293 L 453.075 210.293 L 453.075 210.293 Q 453.075 202.082 448.082 197.412 L 448.082 197.412 L 448.082 197.412 Q 443.089 192.743 436.023 192.743 L 436.023 192.743 L 363.977 192.743 L 363.977 192.743 Q 355.835 192.743 351.38 197.976 L 351.38 197.976 L 351.38 197.976 Q 346.925 203.209 346.925 210.937 L 346.925 210.937 L 346.925 269.385 L 346.925 269.385 Q 346.925 277.757 351.918 282.427 L 351.918 282.427 L 351.918 282.427 Q 356.911 287.096 364.284 287.096 L 364.284 287.096 L 436.023 287.096 L 436.023 327.027 L 363.977 327.027 L 363.977 327.027 Q 355.682 327.027 346.081 323.968 L 346.081 323.968 L 346.081 323.968 Q 336.48 320.908 328.261 314.065 L 328.261 314.065 L 328.261 314.065 Q 320.043 307.222 314.512 296.193 L 314.512 296.193 L 314.512 296.193 Q 308.982 285.164 308.982 269.385 L 308.982 269.385 L 308.982 210.615 L 308.982 210.615 Q 308.982 201.921 311.901 191.857 L 311.901 191.857 L 311.901 191.857 Q 314.82 181.794 321.348 173.18 L 321.348 173.18 L 321.348 173.18 Q 327.877 164.566 338.4 158.77 L 338.4 158.77 L 338.4 158.77 Q 348.922 152.973 363.977 152.973 L 363.977 152.973 L 436.023 152.973 L 436.023 152.973 Q 444.318 152.973 453.919 156.032 L 453.919 156.032 L 453.919 156.032 Q 463.52 159.092 471.739 165.935 L 471.739 165.935 L 471.739 165.935 Q 479.957 172.778 485.488 183.807 L 485.488 183.807 L 485.488 183.807 Q 491.018 194.836 491.018 210.615 Z " id="e" fill="rgb(67,33,96)"/></g></svg>