<?xml version="1.0" encoding="UTF-8" standalone="no"?>
<svg
   xmlns:dc="http://purl.org/dc/elements/1.1/"
   xmlns:cc="http://creativecommons.org/ns#"
   xmlns:rdf="http://www.w3.org/1999/02/22-rdf-syntax-ns#"
   xmlns:svg="http://www.w3.org/2000/svg"
   xmlns="http://www.w3.org/2000/svg"
   xmlns:sodipodi="http://sodipodi.sourceforge.net/DTD/sodipodi-0.dtd"
   xmlns:inkscape="http://www.inkscape.org/namespaces/inkscape"
   width="48"
   height="48"
   viewBox="0 0 48 48"
   version="1.1"
   id="svg6"
   sodipodi:docname="como.svg"
   inkscape:version="0.92.3 (2405546, 2018-03-11)">
  <metadata
     id="metadata12">
    <rdf:RDF>
      <cc:Work
         rdf:about="">
        <dc:format>image/svg+xml</dc:format>
        <dc:type
           rdf:resource="http://purl.org/dc/dcmitype/StillImage" />
        <dc:title></dc:title>
      </cc:Work>
    </rdf:RDF>
  </metadata>
  <defs
     id="defs10" />
  <sodipodi:namedview
     pagecolor="#ffffff"
     bordercolor="#666666"
     borderopacity="1"
     objecttolerance="10"
     gridtolerance="10"
     guidetolerance="10"
     inkscape:pageopacity="0"
     inkscape:pageshadow="2"
     inkscape:window-width="1366"
     inkscape:window-height="746"
     id="namedview8"
     showgrid="false"
     inkscape:zoom="4.9166667"
     inkscape:cx="24"
     inkscape:cy="24"
     inkscape:window-x="0"
     inkscape:window-y="0"
     inkscape:window-maximized="1"
     inkscape:current-layer="svg6" />
  <path
     d="M0 0h48v48H0z"
     fill="none"
     id="path2" />
  <path
     d="m 42.321369,26.34 c 0.09867,-0.768 0.172668,-1.548 0.172668,-2.34 0,-0.792 -0.074,-1.572 -0.172668,-2.34 l 5.217057,-3.972 c 0.468672,-0.36 0.60434,-1.008 0.296003,-1.536 L 42.901042,7.836 C 42.592705,7.32 41.951365,7.104 41.396358,7.32 L 35.254291,9.732 C 33.983943,8.784 32.590261,7.98 31.085578,7.368 l -0.92501,-6.36 C 30.049567,0.444 29.543894,0 28.927221,0 H 19.060446 C 18.443772,0 17.9381,0.444 17.839432,1.008 l -0.92501,6.36 C 15.409739,7.98 14.016057,8.772 12.745709,9.732 L 6.6036415,7.32 C 6.0486354,7.116 5.407295,7.32 5.0989582,7.836 l -4.93338761,8.316 c -0.30833674,0.516 -0.17266857,1.164 0.29600326,1.536 L 5.6662978,21.66 c -0.098668,0.768 -0.1726685,1.548 -0.1726685,2.34 0,0.792 0.074001,1.572 0.1726685,2.34 l -5.20472395,3.972 c -0.46867183,0.36 -0.60434,1.008 -0.29600326,1.536 l 4.93338761,8.316 c 0.3083368,0.516 0.9496772,0.732 1.5046833,0.516 l 6.1420675,-2.412 c 1.270348,0.948 2.66403,1.752 4.168713,2.364 l 0.92501,6.36 C 17.9381,47.556 18.443772,48 19.060446,48 h 9.866775 c 0.616673,0 1.122346,-0.444 1.221013,-1.008 l 0.925011,-6.36 c 1.504683,-0.612 2.898365,-1.404 4.168712,-2.364 l 6.142068,2.412 c 0.555006,0.204 1.196346,0 1.504683,-0.516 l 4.933388,-8.316 c 0.308337,-0.516 0.172669,-1.164 -0.296003,-1.536 z M 23.993833,32.4 c -4.773052,0 -8.633428,-3.756 -8.633428,-8.4 0,-4.644 3.860376,-8.4 8.633428,-8.4 4.773053,0 8.633429,3.756 8.633429,8.4 0,4.644 -3.860376,8.4 -8.633429,8.4 z"
     id="path4"
     inkscape:connector-curvature="0"
     style="stroke-width:1.21655917;fill:#ffffff" />
</svg>
