<?xml version="1.0" encoding="UTF-8" standalone="no"?>
<svg
   xmlns:dc="http://purl.org/dc/elements/1.1/"
   xmlns:cc="http://creativecommons.org/ns#"
   xmlns:rdf="http://www.w3.org/1999/02/22-rdf-syntax-ns#"
   xmlns:svg="http://www.w3.org/2000/svg"
   xmlns="http://www.w3.org/2000/svg"
   xmlns:sodipodi="http://sodipodi.sourceforge.net/DTD/sodipodi-0.dtd"
   xmlns:inkscape="http://www.inkscape.org/namespaces/inkscape"
   viewBox="0 0 48 48"
   version="1.1"
   id="svg4"
   sodipodi:docname="facebook.svg"
   inkscape:version="0.92.3 (2405546, 2018-03-11)"
   width="48"
   height="48">
  <metadata
     id="metadata10">
    <rdf:RDF>
      <cc:Work
         rdf:about="">
        <dc:format>image/svg+xml</dc:format>
        <dc:type
           rdf:resource="http://purl.org/dc/dcmitype/StillImage" />
        <dc:title></dc:title>
      </cc:Work>
    </rdf:RDF>
  </metadata>
  <defs
     id="defs8" />
  <sodipodi:namedview
     pagecolor="#ffffff"
     bordercolor="#666666"
     borderopacity="1"
     objecttolerance="10"
     gridtolerance="10"
     guidetolerance="10"
     inkscape:pageopacity="0"
     inkscape:pageshadow="2"
     inkscape:window-width="1366"
     inkscape:window-height="746"
     id="namedview6"
     showgrid="false"
     inkscape:zoom="7.8666666"
     inkscape:cx="13.630879"
     inkscape:cy="23.898571"
     inkscape:window-x="0"
     inkscape:window-y="0"
     inkscape:window-maximized="1"
     inkscape:current-layer="svg4" />
  <path
     d="M 0,24 Q 0,19.125 1.9,14.675 3.8,10.225 7.025,7.0125 10.25,3.8 14.6875,1.9 19.125,0 24,0 q 4.875,0 9.325,1.9 4.45,1.9 7.6625,5.1125 Q 44.2,10.225 46.1,14.675 48,19.125 48,24 q 0,4.875 -1.9,9.325 -1.9,4.45 -5.1125,7.6625 Q 37.775,44.2 33.325,46.1 28.875,48 24,48 19.125,48 14.6875,46.1 10.25,44.2 7.025,40.9875 3.8,37.775 1.9,33.325 0,28.875 0,24 Z m 17.975,0 H 20.65 V 36.95 H 26 V 24 h 3.6 l 0.45,-4.475 h -4.025 v -2.25 q 0,-1 0.3,-1.3875 Q 26.625,15.5 27.8,15.5 h 2.225 V 11.025 H 26.45 q -3.125,0 -4.4625,1.475 -1.3375,1.475 -1.3375,4.35 v 2.675 h -2.675 z"
     id="path2"
     inkscape:connector-curvature="0"
     style="stroke-width:0.025;fill:#a5a5a5;fill-opacity:1" />
</svg>
