<?xml version="1.0" encoding="UTF-8" standalone="no"?>
<svg
   xmlns:dc="http://purl.org/dc/elements/1.1/"
   xmlns:cc="http://creativecommons.org/ns#"
   xmlns:rdf="http://www.w3.org/1999/02/22-rdf-syntax-ns#"
   xmlns:svg="http://www.w3.org/2000/svg"
   xmlns="http://www.w3.org/2000/svg"
   xmlns:sodipodi="http://sodipodi.sourceforge.net/DTD/sodipodi-0.dtd"
   xmlns:inkscape="http://www.inkscape.org/namespaces/inkscape"
   viewBox="0 0 48 48"
   version="1.1"
   id="svg4"
   sodipodi:docname="instagram.svg"
   inkscape:version="0.92.3 (2405546, 2018-03-11)"
   width="48"
   height="48">
  <metadata
     id="metadata10">
    <rdf:RDF>
      <cc:Work
         rdf:about="">
        <dc:format>image/svg+xml</dc:format>
        <dc:type
           rdf:resource="http://purl.org/dc/dcmitype/StillImage" />
        <dc:title></dc:title>
      </cc:Work>
    </rdf:RDF>
  </metadata>
  <defs
     id="defs8" />
  <sodipodi:namedview
     pagecolor="#ffffff"
     bordercolor="#666666"
     borderopacity="1"
     objecttolerance="10"
     gridtolerance="10"
     guidetolerance="10"
     inkscape:pageopacity="0"
     inkscape:pageshadow="2"
     inkscape:window-width="1366"
     inkscape:window-height="746"
     id="namedview6"
     showgrid="false"
     inkscape:zoom="6.64"
     inkscape:cx="11.523051"
     inkscape:cy="15.591935"
     inkscape:window-x="0"
     inkscape:window-y="0"
     inkscape:window-maximized="1"
     inkscape:current-layer="svg4" />
  <path
     d="M 0,24 Q 0,19.125 1.9,14.675 3.8,10.225 7.0125,7.0125 10.225,3.8 14.675,1.9 19.125,0 24,0 q 4.875,0 9.325,1.9 4.45,1.9 7.6625,5.1125 Q 44.2,10.225 46.1,14.675 48,19.125 48,24 q 0,4.875 -1.9,9.325 -1.9,4.45 -5.1125,7.6625 Q 37.775,44.2 33.325,46.1 28.875,48 24,48 19.125,48 14.675,46.1 10.225,44.2 7.0125,40.9875 3.8,37.775 1.9,33.325 0,28.875 0,24 Z m 13.775,6.65 q 0,1.6 1.1125,2.725 Q 16,34.5 17.6,34.5 h 12.8 q 1.6,0 2.7125,-1.125 1.1125,-1.125 1.1125,-2.725 v -6.3 h -4.7 q -0.5,1.825 -2.0375,3 Q 25.95,28.525 24,28.525 q -1.95,0 -3.475,-1.175 -1.525,-1.175 -2.075,-3 h -4.675 z m 0,-9.5 h 4.675 q 0.55,-1.825 2.075,-2.975 1.525,-1.15 3.475,-1.15 1.95,0 3.4875,1.15 1.5375,1.15 2.0375,2.975 h 4.7 v -3.3 q 0,-1.6 -1.1125,-2.7125 Q 32,14.025 30.4,14.025 H 17.6 q -1.6,0 -2.7125,1.1125 Q 13.775,16.25 13.775,17.85 Z m 7.025,1.6 q 0,1.325 0.9375,2.2625 Q 22.675,25.95 24,25.95 q 1.325,0 2.2625,-0.9375 Q 27.2,24.075 27.2,22.75 27.2,21.425 26.2625,20.4875 25.325,19.55 24,19.55 q -1.325,0 -2.2625,0.9375 Q 20.8,21.425 20.8,22.75 Z"
     id="path2"
     style="fill:#a5a5a5;fill-opacity:1;stroke-width:0.025"
     inkscape:connector-curvature="0" />
</svg>
