<?xml version="1.0" encoding="UTF-8" standalone="no"?>
<svg
   xmlns:dc="http://purl.org/dc/elements/1.1/"
   xmlns:cc="http://creativecommons.org/ns#"
   xmlns:rdf="http://www.w3.org/1999/02/22-rdf-syntax-ns#"
   xmlns:svg="http://www.w3.org/2000/svg"
   xmlns="http://www.w3.org/2000/svg"
   xmlns:sodipodi="http://sodipodi.sourceforge.net/DTD/sodipodi-0.dtd"
   xmlns:inkscape="http://www.inkscape.org/namespaces/inkscape"
   height="48"
   width="48"
   version="1.1"
   id="svg6"
   sodipodi:docname="linkedin.svg"
   inkscape:version="0.92.3 (2405546, 2018-03-11)">
  <metadata
     id="metadata12">
    <rdf:RDF>
      <cc:Work
         rdf:about="">
        <dc:format>image/svg+xml</dc:format>
        <dc:type
           rdf:resource="http://purl.org/dc/dcmitype/StillImage" />
        <dc:title></dc:title>
      </cc:Work>
    </rdf:RDF>
  </metadata>
  <defs
     id="defs10" />
  <sodipodi:namedview
     pagecolor="#ffffff"
     bordercolor="#666666"
     borderopacity="1"
     objecttolerance="10"
     gridtolerance="10"
     guidetolerance="10"
     inkscape:pageopacity="0"
     inkscape:pageshadow="2"
     inkscape:window-width="1366"
     inkscape:window-height="746"
     id="namedview8"
     showgrid="false"
     inkscape:zoom="7.552"
     inkscape:cx="12.805958"
     inkscape:cy="18.822341"
     inkscape:window-x="0"
     inkscape:window-y="0"
     inkscape:window-maximized="1"
     inkscape:current-layer="svg6" />
  <g
     id="g4"
     transform="matrix(0.05,0,0,0.05,0,-1)"
     style="fill:#a5a5a5;fill-opacity:1">
    <path
       d="m 480,20 c 133.333,0 246.667,46.667 340,140 93.333,93.333 140,206.667 140,340 0,132 -46.667,245 -140,339 C 726.667,933 613.333,980 480,980 348,980 235,933 141,839 47,745 0,632 0,500 0,366.667 47,253.333 141,160 235,66.667 348,20 480,20 c 0,0 0,0 0,0 M 362,698 c 0,0 0,-312 0,-312 0,0 -96,0 -96,0 0,0 0,312 0,312 0,0 96,0 96,0 0,0 0,0 0,0 M 314,346 c 34.667,0 52,-16 52,-48 0,-32 -17.333,-48 -52,-48 -14.667,0 -27,4.667 -37,14 -10,9.333 -15,20.667 -15,34 0,32 17.333,48 52,48 0,0 0,0 0,0 m 404,352 c 0,0 0,-184 0,-184 0,-44 -10.333,-77.667 -31,-101 -20.667,-23.333 -47.667,-35 -81,-35 -44,0 -76,16.667 -96,50 0,0 -2,0 -2,0 0,0 -6,-42 -6,-42 0,0 -84,0 -84,0 1.333,18.667 2,52 2,100 0,0 0,212 0,212 0,0 98,0 98,0 0,0 0,-180 0,-180 0,-12 1.333,-20 4,-24 8,-25.333 24.667,-38 50,-38 32,0 48,22.667 48,68 0,0 0,174 0,174 0,0 98,0 98,0 0,0 0,0 0,0"
       id="path2"
       inkscape:connector-curvature="0"
       style="fill:#a5a5a5;fill-opacity:1" />
  </g>
</svg>
