<?xml version="1.0" encoding="UTF-8" standalone="no"?>
<svg
   xmlns:dc="http://purl.org/dc/elements/1.1/"
   xmlns:cc="http://creativecommons.org/ns#"
   xmlns:rdf="http://www.w3.org/1999/02/22-rdf-syntax-ns#"
   xmlns:svg="http://www.w3.org/2000/svg"
   xmlns="http://www.w3.org/2000/svg"
   xmlns:sodipodi="http://sodipodi.sourceforge.net/DTD/sodipodi-0.dtd"
   xmlns:inkscape="http://www.inkscape.org/namespaces/inkscape"
   width="48"
   height="48"
   viewBox="0 0 48 48"
   version="1.1"
   id="svg6"
   sodipodi:docname="onde.svg"
   inkscape:version="0.92.3 (2405546, 2018-03-11)">
  <metadata
     id="metadata12">
    <rdf:RDF>
      <cc:Work
         rdf:about="">
        <dc:format>image/svg+xml</dc:format>
        <dc:type
           rdf:resource="http://purl.org/dc/dcmitype/StillImage" />
        <dc:title></dc:title>
      </cc:Work>
    </rdf:RDF>
  </metadata>
  <defs
     id="defs10" />
  <sodipodi:namedview
     pagecolor="#ffffff"
     bordercolor="#666666"
     borderopacity="1"
     objecttolerance="10"
     gridtolerance="10"
     guidetolerance="10"
     inkscape:pageopacity="0"
     inkscape:pageshadow="2"
     inkscape:window-width="1366"
     inkscape:window-height="746"
     id="namedview8"
     showgrid="false"
     inkscape:zoom="4.92"
     inkscape:cx="24"
     inkscape:cy="24"
     inkscape:window-x="0"
     inkscape:window-y="0"
     inkscape:window-maximized="1"
     inkscape:current-layer="svg6" />
  <path
     d="M 46.666667,0 C 46.52,0 46.386667,0.01333333 46.253333,0.06666667 L 32,5.6 16,0 0.97333333,5.0666667 C 0.41333333,5.2533333 0,5.7333333 0,6.3466667 V 46.666667 C 0,47.4 0.6,48 1.3333333,48 1.48,48 1.6133333,47.98667 1.7466667,47.93333 L 16,42.4 32,48 47.04,42.946667 c 0.56,-0.2 0.96,-0.68 0.96,-1.293334 V 1.3333333 C 48,0.6 47.4,0 46.666667,0 Z M 32,42.666667 16,37.053333 V 5.3333333 l 16,5.6133337 z"
     id="path2"
     inkscape:connector-curvature="0"
     style="stroke-width:1.33333325;fill:#ffffff" />
  <path
     d="M0 0h48v48H0z"
     fill="none"
     id="path4" />
</svg>
