<?xml version="1.0" encoding="UTF-8" standalone="no"?>
<!-- Generated by IcoMoon.io -->

<svg
   xmlns:dc="http://purl.org/dc/elements/1.1/"
   xmlns:cc="http://creativecommons.org/ns#"
   xmlns:rdf="http://www.w3.org/1999/02/22-rdf-syntax-ns#"
   xmlns:svg="http://www.w3.org/2000/svg"
   xmlns="http://www.w3.org/2000/svg"
   xmlns:sodipodi="http://sodipodi.sourceforge.net/DTD/sodipodi-0.dtd"
   xmlns:inkscape="http://www.inkscape.org/namespaces/inkscape"
   version="1.1"
   width="200"
   height="180"
   viewBox="0 0 200 180"
   id="svg4"
   sodipodi:docname="logo.svg"
   inkscape:version="0.92.4 5da689c313, 2019-01-14">
  <metadata
     id="metadata10">
    <rdf:RDF>
      <cc:Work
         rdf:about="">
        <dc:format>image/svg+xml</dc:format>
        <dc:type
           rdf:resource="http://purl.org/dc/dcmitype/StillImage" />
        <dc:title></dc:title>
      </cc:Work>
    </rdf:RDF>
  </metadata>
  <defs
     id="defs8" />
  <sodipodi:namedview
     pagecolor="#ffffff"
     bordercolor="#666666"
     borderopacity="1"
     objecttolerance="10"
     gridtolerance="10"
     guidetolerance="10"
     inkscape:pageopacity="0"
     inkscape:pageshadow="2"
     inkscape:window-width="1366"
     inkscape:window-height="709"
     id="namedview6"
     showgrid="false"
     inkscape:zoom="1.2836704"
     inkscape:cx="227.60935"
     inkscape:cy="103.48194"
     inkscape:window-x="0"
     inkscape:window-y="0"
     inkscape:window-maximized="1"
     inkscape:current-layer="svg4" />
  <path
     d="M 198.72244,101.92327 110.42692,4.683608 C 107.68675,1.664175 103.98651,0 100.00626,0 c 0,0 0,0 0,0 -3.970242,0 -7.670474,1.664175 -10.420646,4.683608 L 1.2900946,101.92327 c -1.85011572,2.04285 -1.69010571,5.19183 0.3500219,7.03538 0.96006,0.86697 2.160135,1.28549 3.3502094,1.28549 1.360085,0 2.7201701,-0.54807 3.710232,-1.64423 L 29.991889,85.15197 v 79.90035 c 0,8.24115 6.73042,14.94768 15.000938,14.94768 H 154.9997 c 8.27052,0 15.00094,-6.70653 15.00094,-14.94768 V 85.15197 l 21.29133,23.44794 c 1.85012,2.04284 5.01032,2.20228 7.06044,0.34877 2.05013,-1.85352 2.21014,-4.99253 0.35003,-7.03538 z m -78.71492,68.1116 H 80.005016 v -44.84305 c 0,-2.75036 2.24014,-4.98256 5.000312,-4.98256 H 115.0072 c 2.76018,0 5.00032,2.2322 5.00032,4.98256 z m 40.0025,-4.98255 c 0,2.75036 -2.24014,4.98255 -5.00032,4.98255 h -25.00156 v -44.84305 c 0,-8.24115 -6.73042,-14.94768 -15.00094,-14.94768 H 85.005328 c -8.270517,0 -15.000938,6.70653 -15.000938,14.94768 v 44.84305 H 45.002827 c -2.760172,0 -5.000312,-2.23219 -5.000312,-4.98255 V 74.140504 L 97.006078,11.360239 c 0.820052,-0.906827 1.890119,-1.405081 3.000182,-1.405081 1.11007,0 2.18014,0.498254 3.00019,1.405081 l 57.00357,62.780265 z"
     id="path2"
     inkscape:connector-curvature="0"
     style="fill:#647785;stroke-width:9.9828577;fill-opacity:0.94117647" />
</svg>
