<?xml version="1.0" encoding="UTF-8" standalone="no"?>
<!-- Created with Inkscape (http://www.inkscape.org/) -->

<svg
   xmlns:dc="http://purl.org/dc/elements/1.1/"
   xmlns:cc="http://creativecommons.org/ns#"
   xmlns:rdf="http://www.w3.org/1999/02/22-rdf-syntax-ns#"
   xmlns:svg="http://www.w3.org/2000/svg"
   xmlns="http://www.w3.org/2000/svg"
   xmlns:sodipodi="http://sodipodi.sourceforge.net/DTD/sodipodi-0.dtd"
   xmlns:inkscape="http://www.inkscape.org/namespaces/inkscape"
   version="1.1"
   id="svg2"
   xml:space="preserve"
   width="110.66667"
   height="112"
   viewBox="0 0 110.66667 112"
   sodipodi:docname="logo.svg"
   inkscape:version="0.92.4 (unknown)"><metadata
     id="metadata8"><rdf:RDF><cc:Work
         rdf:about=""><dc:format>image/svg+xml</dc:format><dc:type
           rdf:resource="http://purl.org/dc/dcmitype/StillImage" /><dc:title></dc:title></cc:Work></rdf:RDF></metadata><defs
     id="defs6"><clipPath
       clipPathUnits="userSpaceOnUse"
       id="clipPath18"><path
         d="M 0,84 H 83 V 0 H 0 Z"
         id="path16"
         inkscape:connector-curvature="0" /></clipPath></defs><sodipodi:namedview
     pagecolor="#ffffff"
     bordercolor="#666666"
     borderopacity="1"
     objecttolerance="10"
     gridtolerance="10"
     guidetolerance="10"
     inkscape:pageopacity="0"
     inkscape:pageshadow="2"
     inkscape:window-width="1366"
     inkscape:window-height="713"
     id="namedview4"
     showgrid="false"
     inkscape:zoom="2.1071429"
     inkscape:cx="55.333336"
     inkscape:cy="56"
     inkscape:window-x="0"
     inkscape:window-y="27"
     inkscape:window-maximized="1"
     inkscape:current-layer="g10" /><g
     id="g10"
     inkscape:groupmode="layer"
     inkscape:label="drupal-de-elite-novo-logo"
     transform="matrix(1.3333333,0,0,-1.3333333,0,112)"><g
       id="g12"><g
         id="g14"
         clip-path="url(#clipPath18)"><g
           id="g20"
           transform="translate(74.8203,42.2344)"><path
             d="m 0,0 c 0,-18.877 -15.303,-34.18 -34.182,-34.18 -18.875,0 -34.177,15.303 -34.177,34.18 0,18.88 15.302,34.182 34.177,34.182 C -15.303,34.182 0,18.88 0,0"
             style="fill:#f7f7f7;fill-opacity:1;fill-rule:nonzero;stroke:none"
             id="path22"
             inkscape:connector-curvature="0" /></g><g
           id="g24"
           transform="translate(69.7637,42.3203)"><path
             d="m 0,0 c 0,-15.942 -12.924,-28.867 -28.867,-28.867 -15.942,0 -28.867,12.925 -28.867,28.867 0,15.945 12.925,28.869 28.867,28.869 C -12.924,28.869 0,15.945 0,0"
             style="fill:#0b203d;fill-opacity:1;fill-rule:nonzero;stroke:none"
             id="path26"
             inkscape:connector-curvature="0" /></g><g
           id="g28"
           transform="translate(40.998,11.7813)"><path
             d="m 0,0 c -16.875,0 -30.553,13.68 -30.553,30.555 0,16.873 13.678,30.551 30.553,30.551 16.873,0 30.551,-13.678 30.551,-30.551 C 30.551,13.68 16.873,0 0,0 m 0,66.887 c -20.066,0 -36.332,-16.268 -36.332,-36.332 0,-20.067 16.266,-36.334 36.332,-36.334 20.066,0 36.332,16.267 36.332,36.334 0,20.064 -16.266,36.332 -36.332,36.332"
             style="fill:#408abb;fill-opacity:1;fill-rule:nonzero;stroke:none"
             id="path30"
             inkscape:connector-curvature="0" /></g><g
           id="g32"
           transform="translate(30.7637,37.7285)"><path
             d="M 0,0 C 0.623,0.814 1.367,2.344 2.627,1.994 3.016,1.887 3.121,1.51 3.324,1.188 3.729,0.545 4.168,-0.076 4.65,-0.661 c 1.059,-1.281 2.209,-2.485 3.455,-3.573 1.76,-1.537 3.561,-2.641 5.608,-3.155 2.4,1.532 4.303,2.647 5.824,2.719 1.252,0.061 2.182,-0.483 3.293,-1.543 2.037,0.953 3.889,2.328 5.481,4.035 1.113,1.194 2.941,4.561 4.972,3.657 C 34.139,1.097 35,0.541 35.547,-0.605 35.508,-0.21 35.504,0.172 35.424,0.566 34.66,3.861 32.309,4.477 29.84,3.481 27.328,2.47 24.18,-1.018 21.086,-1.99 17.52,-3.11 13.719,1.053 10.73,2.942 6.912,5.362 1.52,6.516 -3.033,2.418 -5.629,0.08 -6.516,-2.598 -6.533,-4.924 -3.982,-3.862 -1.719,-2.249 0,0"
             style="fill:#f7f7f7;fill-opacity:1;fill-rule:nonzero;stroke:none"
             id="path34"
             inkscape:connector-curvature="0" /></g><g
           id="g36"
           transform="translate(65.2051,39.1367)"><path
             d="m 0,0 c -0.533,0.621 -0.424,0.954 -1.139,1.369 0.053,-0.029 -2.976,-1.935 -3.363,-2.35 -1.252,-1.343 -2.557,-3.441 -4.107,-4.415 -0.731,-0.46 -2.352,-1.745 -3.129,-2.115 0.23,-0.243 1.336,-1.369 1.592,-1.648 1.564,-1.411 3.191,-3.749 4.814,-4.092 1.709,-0.362 3.553,0.593 5.105,3.647 1.448,3.271 1.448,6.324 1.332,7.583 C 0.717,-1.163 0.543,-0.633 0,0"
             style="fill:#f7f7f7;fill-opacity:1;fill-rule:nonzero;stroke:none"
             id="path38"
             inkscape:connector-curvature="0" /></g><g
           id="g40"
           transform="translate(44.4785,30.3457)"><path
             d="m 0,0 c -1.461,0.392 -4.338,2.364 -5.615,3.363 -2.332,1.823 -4.004,4.341 -5.58,6.917 -0.014,-0.019 -1.932,-0.904 -1.946,-0.924 -0.56,-0.756 -0.97,-0.982 -1.638,-1.641 -1.883,-1.86 -3.055,-4.19 -5.469,-5.134 -0.107,-1.334 0.568,-3.722 1.072,-4.555 2.703,-4.473 10.471,-3.526 16.424,0.242 C -2.32,-1.46 -0.406,-0.262 0,0"
             style="fill:#f7f7f7;fill-opacity:1;fill-rule:nonzero;stroke:none"
             id="path42"
             inkscape:connector-curvature="0" /></g></g></g></g></svg>